<svg width="85" height="85" viewBox="0 0 85 85" fill="none" xmlns="http://www.w3.org/2000/svg">
<path fill-rule="evenodd" clip-rule="evenodd" d="M62.9257 9.04315C64.509 9.04315 65.7925 7.75957 65.7925 6.17633V3.79776C65.7925 2.21453 64.509 0.930946 62.9257 0.930946C61.3425 0.930946 60.0589 2.21453 60.0589 3.79776V6.17633C60.0589 7.75957 61.3425 9.04315 62.9257 9.04315ZM36.6049 78.3348H81.7033C83.2863 78.3348 84.5701 79.6184 84.5701 81.2016C84.5701 82.7848 83.2865 84.0684 81.7033 84.0684H2.86682C1.28359 84.0684 0 82.7848 0 81.2016C0 79.6184 1.28359 78.3348 2.86682 78.3348H10.1233C7.67776 70.6885 6.3066 60.797 6.3066 50.4554C6.3066 27.5197 20.5082 9.24095 21.1126 8.47424C21.6564 7.7845 22.4861 7.38211 23.3641 7.38211C24.2422 7.38211 25.0719 7.7845 25.6156 8.47424C26.2201 9.24095 40.4216 27.5194 40.4216 50.4554C40.4216 60.797 39.0502 70.6885 36.6049 78.3348ZM26.2309 78.3348H30.5499C33.1909 71.0929 34.688 61.0746 34.688 50.4554C34.688 38.2145 30.0786 27.1908 26.2309 20.1204V78.3348ZM20.4976 20.1204C16.6503 27.1903 12.0405 38.2139 12.0405 50.4554C12.0405 61.0746 13.5376 71.0929 16.1786 78.3348H20.4976V20.1204ZM62.9258 9.67311C70.2776 9.67311 76.2585 15.654 76.2585 23.0058C76.2585 30.3576 70.2776 36.3385 62.9258 36.3385C55.574 36.3385 49.5931 30.3576 49.5931 23.0058C49.5931 15.654 55.574 9.67311 62.9258 9.67311ZM55.3265 23.0058C55.3265 27.196 58.7356 30.6052 62.9258 30.6052C67.116 30.6052 70.5251 27.196 70.5251 23.0058C70.5251 18.8156 67.116 15.4065 62.9258 15.4065C58.7356 15.4065 55.3265 18.8156 55.3265 23.0058ZM60.0589 42.2132V39.8347C60.0589 38.2517 61.3425 36.9681 62.9257 36.9678C64.509 36.9678 65.7925 38.2514 65.7925 39.8347V42.2132C65.7925 43.7965 64.509 45.08 62.9257 45.08C61.3425 45.08 60.0589 43.7965 60.0589 42.2132ZM76.8878 23.0058C76.8878 24.589 78.1714 25.8726 79.7546 25.8726H82.1332C83.7164 25.8726 85 24.589 85 23.0058C85 21.4226 83.7164 20.139 82.1332 20.139H79.7546C78.1716 20.139 76.8878 21.4229 76.8878 23.0058ZM46.0969 25.8726H43.7183C42.1351 25.8726 40.8515 24.589 40.8515 23.0058C40.8515 21.4226 42.1351 20.139 43.7183 20.139H46.0969C47.6801 20.139 48.9637 21.4226 48.9637 23.0058C48.9637 24.589 47.6801 25.8726 46.0969 25.8726ZM74.8255 13.9729C75.5593 13.9729 76.2928 13.693 76.8526 13.1332L78.5345 11.4512C79.6541 10.3316 79.6541 8.51631 78.5345 7.397C77.4147 6.27769 75.5999 6.27769 74.4803 7.397L72.7983 9.07897C71.6787 10.1986 71.6787 12.0139 72.7983 13.1332C73.3581 13.693 74.0917 13.9729 74.8255 13.9729ZM47.317 34.5604L48.9989 32.8784C50.1188 31.7591 51.9336 31.7591 53.0532 32.8784C54.1728 33.9977 54.1728 35.813 53.0532 36.9326L51.3712 38.6146C50.8114 39.1744 50.0779 39.4543 49.3441 39.4543C48.6103 39.4543 47.8768 39.1741 47.317 38.6146C46.1974 37.4953 46.1974 35.68 47.317 34.5604ZM74.4803 38.6146C75.0401 39.1741 75.7736 39.4543 76.5074 39.4543C77.2412 39.4543 77.9747 39.1744 78.5345 38.6146C79.6541 37.495 79.6541 35.6797 78.5345 34.5604L76.8526 32.8784C75.7327 31.7591 73.9179 31.7591 72.7983 32.8784C71.6787 33.998 71.6787 35.8133 72.7983 36.9326L74.4803 38.6146ZM51.0261 13.9732C50.2923 13.9732 49.5587 13.693 48.9989 13.1335L47.317 11.4515C46.1974 10.3322 46.1974 8.51688 47.317 7.39729C48.4366 6.27798 50.2513 6.27798 51.3712 7.39729L53.0532 9.07926C54.1728 10.1986 54.1728 12.0139 53.0532 13.1335C52.4934 13.6933 51.7599 13.9732 51.0261 13.9732Z" fill="#FFBA08"/>
</svg>
