<svg width="57" height="81" viewBox="0 0 57 81" fill="none" xmlns="http://www.w3.org/2000/svg">
<path fill-rule="evenodd" clip-rule="evenodd" d="M46.2799 78.1476H55.0258C55.8132 78.1476 56.452 78.7862 56.452 79.5738C56.452 80.3614 55.8134 81 55.0258 81H1.97441C1.18678 81 0.54823 80.3614 0.54823 79.5738C0.54823 78.7862 1.18678 78.1476 1.97441 78.1476H10.7203V27.4706C10.7203 26.6829 11.3589 26.0444 12.1465 26.0444H13.7724V13.0186C13.7724 12.2309 14.4109 11.5924 15.1986 11.5924H17.6459V1.60909C17.6459 0.821454 18.2844 0.182904 19.0721 0.182904H27.0739C27.0739 1.08898 27.0739 1.39944 27.1246 1.40793C27.228 1.42528 27.5427 0.182903 28.5001 0.182903L29.9263 0.182904H37.9281C38.7158 0.182904 39.3543 0.821454 39.3543 1.60909V11.5924H41.8016C42.5893 11.5924 43.2278 12.2309 43.2278 13.0186V26.0444H44.8537C45.6413 26.0444 46.2799 26.6829 46.2799 27.4706V78.1476ZM36.5019 3.03527H20.4983L20.4985 11.5924H21.8341V6.39403C21.8341 5.6064 22.4727 4.96785 23.2603 4.96785C24.0479 4.96785 24.6865 5.6064 24.6865 6.39403V11.5924H27.0739V6.39403C27.0739 5.6064 27.7125 4.96785 28.5001 4.96785C29.2877 4.96785 29.9263 5.6064 29.9263 6.39403V11.5924H32.3139V6.39403C32.3139 5.6064 32.9525 4.96785 33.7401 4.96785C34.5277 4.96785 35.1663 5.6064 35.1663 6.39403V11.5924H36.5019V3.03527ZM40.3755 14.4447H16.6247V26.0444H19.2141V16.6949C19.2141 15.9072 19.8527 15.2687 20.6403 15.2687C21.4279 15.2687 22.0665 15.9072 22.0665 16.6949V26.0444H24.4539V16.6949C24.4539 15.9072 25.0925 15.2687 25.8801 15.2687C26.6677 15.2687 27.3063 15.9072 27.3063 16.6949V26.0444H29.6937V16.6949C29.6937 15.9072 30.3323 15.2687 31.1199 15.2687C31.9075 15.2687 32.5461 15.9072 32.5461 16.6949V26.0444H34.9337V16.6949C34.9337 15.9072 35.5723 15.2687 36.3599 15.2687C37.1475 15.2687 37.7861 15.9072 37.7861 16.6949V26.0444H40.3755V14.4447ZM13.5727 28.8967V78.1476H43.4275V28.8967H13.5727ZM18.9638 30.418C18.1761 30.418 17.5376 31.0566 17.5376 31.8442V75.0106C17.5376 75.7982 18.1761 76.4368 18.9638 76.4368C19.7514 76.4368 20.3899 75.7982 20.3899 75.0106V31.8442C20.3899 31.0564 19.7514 30.418 18.9638 30.418ZM25.4262 30.418C24.6385 30.418 24 31.0566 24 31.8442V75.0106C24 75.7982 24.6385 76.4368 25.4262 76.4368C26.2138 76.4368 26.8524 75.7982 26.8524 75.0106V31.8442C26.8524 31.0564 26.2138 30.418 25.4262 30.418ZM30 31.8442C30 31.0566 30.6385 30.418 31.4262 30.418C32.2138 30.418 32.8524 31.0564 32.8524 31.8442V75.0106C32.8524 75.7982 32.2138 76.4368 31.4262 76.4368C30.6385 76.4368 30 75.7982 30 75.0106V31.8442ZM38.0364 30.418C37.2487 30.418 36.6102 31.0566 36.6102 31.8442V75.0106C36.6102 75.7982 37.2487 76.4368 38.0364 76.4368C38.824 76.4368 39.4626 75.7982 39.4626 75.0106V31.8442C39.4626 31.0564 38.8238 30.418 38.0364 30.418Z" fill="#FFBA08"/>
</svg>
